<svg xmlns="http://www.w3.org/2000/svg" xmlns:xlink="http://www.w3.org/1999/xlink" viewBox="0 0 193.635 227.75">
  <defs>
    <style>
      .cls-1 {
        fill: #0045ff;
      }

      .cls-2 {
        fill: #fd0;
      }

      .cls-3 {
        fill: #efc803;
      }

      .cls-4 {
        fill: #eb5639;
      }

      .cls-5 {
        fill: #2197f7;
      }

      .cls-6 {
        fill: #d84936;
      }

      .cls-7 {
        fill: #263238;
      }

      .cls-8 {
        fill: #40bdff;
      }

      .cls-9 {
        fill: #effafe;
      }

      .cls-10 {
        fill: #e4ebed;
      }

      .cls-11 {
        filter: url(#Path_33);
      }

      .cls-12 {
        filter: url(#Path_16);
      }
    </style>
    <filter id="Path_16" x="0" y="0" width="176.953" height="176.944" filterUnits="userSpaceOnUse">
      <feOffset dy="3" input="SourceAlpha"/>
      <feGaussianBlur stdDeviation="6" result="blur"/>
      <feFlood flood-opacity="0.122"/>
      <feComposite operator="in" in2="blur"/>
      <feComposite in="SourceGraphic"/>
    </filter>
    <filter id="Path_33" x="58.966" y="50.771" width="133.451" height="176.979" filterUnits="userSpaceOnUse">
      <feOffset input="SourceAlpha"/>
      <feGaussianBlur stdDeviation="6" result="blur-2"/>
      <feFlood flood-opacity="0.122"/>
      <feComposite operator="in" in2="blur-2"/>
      <feComposite in="SourceGraphic"/>
    </filter>
  </defs>
  <g id="Group_4" data-name="Group 4" transform="translate(-974.235 -270)">
    <g id="if_bag_job_seeker_employee_unemployee_work_2620533" transform="translate(992.235 285)">
      <path id="Path_1" data-name="Path 1" class="cls-1" d="M60.509,19.6a1.17,1.17,0,0,1,1.17-1.17h73.693a1.17,1.17,0,0,1,1.17,1.17V33.055h6.434V16.679A4.679,4.679,0,0,0,138.3,12H61.679A4.679,4.679,0,0,0,57,16.679V33.055h3.509Z" transform="translate(-28.049 -9.368)"/>
      <path id="Path_2" data-name="Path 2" class="cls-2" d="M145.086,52H21.679A4.679,4.679,0,0,0,17,56.679V88.262a7.018,7.018,0,0,0,7.018,7.018H69.106v-.257a12.867,12.867,0,0,1,25.57,0v.257h48.07a7.018,7.018,0,0,0,7.018-7.018V56.679A4.679,4.679,0,0,0,145.086,52Z" transform="translate(-11.444 -25.973)"/>
      <path id="Path_3" data-name="Path 3" class="cls-3" d="M232.264,52h-2.924a4.679,4.679,0,0,1,4.679,4.679V88.262A7.018,7.018,0,0,1,227,95.28h2.924a7.018,7.018,0,0,0,7.018-7.018V56.679A4.679,4.679,0,0,0,232.264,52Z" transform="translate(-98.622 -25.973)"/>
      <path id="Path_4" data-name="Path 4" class="cls-4" d="M197.358,134.679V130H188v4.679a4.679,4.679,0,0,0,9.358,0Z" transform="translate(-82.431 -58.354)"/>
      <path id="Path_5" data-name="Path 5" class="cls-4" d="M120.569,110a10.58,10.58,0,0,0-10.422,9.025l-.047.333h20.938l-.047-.333A10.58,10.58,0,0,0,120.569,110Z" transform="translate(-50.093 -50.051)"/>
      <path id="Path_6" data-name="Path 6" class="cls-2" d="M158.105,160.068a24.564,24.564,0,0,0-23.055,23.348h7.469a1.17,1.17,0,1,1,0,2.339H135.05a24.359,24.359,0,0,0,23.365,23.365v-7.469a1.17,1.17,0,1,1,2.339,0v7.469a24.359,24.359,0,0,0,23.365-23.365h-7.469a1.17,1.17,0,1,1,0-2.339h7.469a24.564,24.564,0,0,0-23.055-23.348h-.31v7.469a1.17,1.17,0,1,1-2.339,0V160.05Zm7.726,32.074a1.168,1.168,0,0,1-1.965,1.263l-5.264-8.188a1.17,1.17,0,0,1-.187-.632V173.367a1.17,1.17,0,1,1,2.339,0V184.24Z" transform="translate(-60.45 -70.829)"/>
      <path id="Path_7" data-name="Path 7" class="cls-1" d="M142.746,127.767H128.71v4.679a7.018,7.018,0,1,1-14.037,0v-4.679H49.168v4.679a7.018,7.018,0,0,1-14.037,0v-4.679H24.018a9.305,9.305,0,0,1-6.521-2.661l-.5-.485v41.748a4.679,4.679,0,0,0,4.679,4.679h62v-.3a26.907,26.907,0,1,1,53.808-.866v1.17h7.6a4.679,4.679,0,0,0,4.679-4.679V124.62l-.5.485a9.305,9.305,0,0,1-6.521,2.661Z" transform="translate(-11.444 -56.12)"/>
      <path id="Path_8" data-name="Path 8" class="cls-5" d="M238.106,125.105a9.41,9.41,0,0,1-2.427,1.708v39.555A4.679,4.679,0,0,1,231,171.047h2.924a4.679,4.679,0,0,0,4.679-4.679V124.62Z" transform="translate(-100.282 -56.12)"/>
      <path id="Path_9" data-name="Path 9" class="cls-4" d="M61.358,134.679V130H52v4.679a4.679,4.679,0,0,0,9.358,0Z" transform="translate(-25.973 -58.354)"/>
      <path id="Path_10" data-name="Path 10" class="cls-5" d="M193.924,12H191a4.679,4.679,0,0,1,4.679,4.679V33.055H198.6V16.679A4.679,4.679,0,0,0,193.924,12Z" transform="translate(-83.677 -9.368)"/>
      <path id="Path_11" data-name="Path 11" class="cls-6" d="M196.717,130v4.679a4.679,4.679,0,0,1-3.217,4.439,4.679,4.679,0,0,0,6.141-4.439V130Z" transform="translate(-84.715 -58.354)"/>
      <path id="Path_12" data-name="Path 12" class="cls-6" d="M137.385,119.024A10.58,10.58,0,0,0,126.962,110a10.37,10.37,0,0,0-1.462.117,10.58,10.58,0,0,1,8.96,8.908l.047.333h2.924Z" transform="translate(-56.486 -50.051)"/>
      <path id="Path_13" data-name="Path 13" class="cls-3" d="M199.441,183.428h2.924A24.564,24.564,0,0,0,179.31,160.08H179v.322A24.564,24.564,0,0,1,199.441,183.428Z" transform="translate(-78.695 -70.841)"/>
      <path id="Path_14" data-name="Path 14" class="cls-3" d="M179,227.026v.339A24.359,24.359,0,0,0,202.365,204h-2.924A24.3,24.3,0,0,1,179,227.026Z" transform="translate(-78.695 -89.074)"/>
      <path id="Path_15" data-name="Path 15" class="cls-6" d="M60.717,130v4.679a4.679,4.679,0,0,1-3.217,4.439,4.679,4.679,0,0,0,6.141-4.439V130Z" transform="translate(-28.257 -58.354)"/>
      <g class="cls-12" transform="matrix(1, 0, 0, 1, -18, -15)">
        <path id="Path_16-2" data-name="Path 16" class="cls-7" d="M141.142,30.895H125.058V14.811A7.317,7.317,0,0,0,117.747,7.5H38.206a7.317,7.317,0,0,0-7.311,7.311V30.895H14.811A7.317,7.317,0,0,0,7.5,38.206v79.542a7.317,7.317,0,0,0,7.311,7.311h64.92a27.2,27.2,0,0,0,53.866,0h7.6a7.317,7.317,0,0,0,7.252-7.311V38.206a7.317,7.317,0,0,0-7.311-7.311ZM33.819,14.811a4.392,4.392,0,0,1,4.387-4.387h79.542a4.392,4.392,0,0,1,4.387,4.387V30.895h-5.849V17.735a1.462,1.462,0,0,0-1.462-1.462H41.13a1.462,1.462,0,0,0-1.462,1.462v13.16H33.819ZM113.361,19.2v11.7H42.592V19.2ZM123.7,122.719h7.159A24.114,24.114,0,0,1,108.1,145.482v-7.159a1.462,1.462,0,1,0-2.924,0v7.159A24.114,24.114,0,0,1,82.41,122.719h7.159a1.462,1.462,0,1,0,0-2.924H82.41a24.3,24.3,0,0,1,22.763-22.763v7.159a1.462,1.462,0,0,0,2.924,0V97.031a24.3,24.3,0,0,1,22.763,22.763H123.7a1.462,1.462,0,1,0,0,2.924Zm21.827-4.971a4.392,4.392,0,0,1-4.387,4.387H133.82v-.877a27.2,27.2,0,1,0-54.393.877H14.811a4.392,4.392,0,0,1-4.387-4.387V76.7a9.615,9.615,0,0,0,6.726,2.743H30.895v4.387a7.311,7.311,0,0,0,14.622,0V79.439h64.92v4.387a7.311,7.311,0,0,0,14.622,0V79.439H138.8a9.616,9.616,0,0,0,6.727-2.744ZM33.819,83.825V79.439h8.773v4.387a4.387,4.387,0,1,1-8.773,0Zm34.028-7.311a10.235,10.235,0,0,1,20.26,0Zm45.514,7.311V79.439h8.773v4.387a4.386,4.386,0,1,1-8.773,0Zm32.168-14.037a6.732,6.732,0,0,1-6.726,6.726H91.054a13.16,13.16,0,0,0-26.155,0H17.15a6.732,6.732,0,0,1-6.726-6.726V38.206a4.392,4.392,0,0,1,4.387-4.387H141.142a4.392,4.392,0,0,1,4.387,4.387Z" transform="translate(10.5 7.5)"/>
      </g>
      <path id="Path_17" data-name="Path 17" class="cls-7" d="M177.424,192.573V181.782a1.462,1.462,0,0,0-2.924,0V193a1.462,1.462,0,0,0,.234.79L180,201.978a1.463,1.463,0,0,0,2.462-1.579Z" transform="translate(-76.827 -79.243)"/>
      <path id="Path_18" data-name="Path 18" class="cls-2" d="M127.434,232.924h-2.339v-2.339a.585.585,0,1,0-1.17,0v2.339h-2.339a.585.585,0,1,0,0,1.17h2.339v2.339a.585.585,0,1,0,1.17,0v-2.339h2.339a.585.585,0,1,0,0-1.17Z" transform="translate(-54.618 -99.867)"/>
      <path id="Path_19" data-name="Path 19" class="cls-2" d="M50.434,225.334H48.094v-2.339a.585.585,0,1,0-1.17,0v2.339H44.585a.585.585,0,1,0,0,1.17h2.339v2.339a.585.585,0,0,0,1.17,0V226.5h2.339a.585.585,0,0,0,0-1.17Z" transform="translate(-22.652 -96.716)"/>
      <path id="Path_20" data-name="Path 20" class="cls-8" d="M236.434,226.924h-1.515l1.07-1.07a.585.585,0,0,0-.825-.825l-1.07,1.07v-1.515a.585.585,0,1,0-1.17,0V226.1l-1.07-1.07a.585.585,0,0,0-.825.825l1.07,1.07h-1.515a.585.585,0,1,0,0,1.17H232.1l-1.07,1.07a.585.585,0,0,0,.825.825l1.07-1.07v1.515a.585.585,0,1,0,1.17,0v-1.515l1.07,1.07a.585.585,0,0,0,.825-.825l-1.07-1.07h1.515a.585.585,0,1,0,0-1.17Z" transform="translate(-99.867 -97.376)"/>
      <path id="Path_21" data-name="Path 21" class="cls-8" d="M28.754,19.244H26.414V16.9a.585.585,0,1,0-1.17,0v2.339H22.9a.585.585,0,0,0,0,1.17h2.339v2.339a.585.585,0,1,0,1.17,0V20.414h2.339a.585.585,0,1,0,0-1.17Z" transform="translate(-13.652 -11.161)"/>
      <path id="Path_22" data-name="Path 22" class="cls-8" d="M92.569,226.838a3.509,3.509,0,1,1,3.509-3.509A3.509,3.509,0,0,1,92.569,226.838Zm0-5.849a2.339,2.339,0,1,0,2.339,2.339A2.339,2.339,0,0,0,92.569,220.99Z" transform="translate(-41.358 -95.641)"/>
      <path id="Path_23" data-name="Path 23" class="cls-2" d="M231.509,31.018a3.509,3.509,0,1,1,3.509-3.509A3.509,3.509,0,0,1,231.509,31.018Zm0-5.849a2.339,2.339,0,1,0,2.339,2.339A2.339,2.339,0,0,0,231.509,25.17Z" transform="translate(-99.037 -14.35)"/>
    </g>
    <g id="if_sertificate_job_seeker_employee_unemployee_work_2620502" transform="translate(1033.252 338.771)">
      <path id="Path_24" data-name="Path 24" class="cls-9" d="M76.506,120.12l.76,4.3h7.79a4.205,4.205,0,0,0,4.205-4.205V10.744H79.694a1.17,1.17,0,0,1-1.17-1.17V0H4.193A4.205,4.205,0,0,0,0,4.205V120.219a4.205,4.205,0,0,0,4.194,4.205H51.808l.76-4.3a14.113,14.113,0,1,1,23.939,0ZM13.534,14.943a1.17,1.17,0,0,1,1.17-1.17H71.635a1.17,1.17,0,1,1,0,2.339H14.7A1.17,1.17,0,0,1,13.534,14.943ZM3.983,74.921H71.635a1.17,1.17,0,1,1,0,2.339H3.983a1.17,1.17,0,1,1,0-2.339Zm78.372-42.7H9.334a1.17,1.17,0,1,1,0-2.339H82.355a1.17,1.17,0,0,1,0,2.339Zm0,15.014H3.983a1.17,1.17,0,0,1,0-2.339H82.355a1.17,1.17,0,0,1,0,2.339ZM3.983,59.914H82.355a1.17,1.17,0,0,1,0,2.339H3.983a1.17,1.17,0,1,1,0-2.339Z" transform="translate(23.506 2.632)"/>
      <path id="Path_25" data-name="Path 25" class="cls-2" d="M11.773,23.547A11.762,11.762,0,1,0,3.445,20.1,11.773,11.773,0,0,0,11.773,23.547Z" transform="translate(76.273 103.504)"/>
      <path id="Path_26" data-name="Path 26" class="cls-3" d="M.877,0A5.478,5.478,0,0,0,0,.047,11.762,11.762,0,0,1,10.933,11.779,11.762,11.762,0,0,1,0,23.512c.292,0,.585.047.877.047A11.776,11.776,0,0,0,.877.006Z" transform="translate(87.169 103.504)"/>
      <path id="Path_27" data-name="Path 27" class="cls-10" d="M4.205,0V109.475A4.205,4.205,0,0,1,0,113.681H2.924a4.205,4.205,0,0,0,4.205-4.205V0Z" transform="translate(105.639 13.376)"/>
      <path id="Path_28" data-name="Path 28" class="cls-4" d="M4.773,9.756A1.17,1.17,0,0,1,5.8,9.574l3.954,1.17L8.422,3.211h0C7.878.117,7.978.678,7.837,0A14.376,14.376,0,0,1,0,3.995l1.45,8.188Z" transform="translate(90.222 125.214)"/>
      <path id="Path_29" data-name="Path 29" class="cls-4" d="M1.895,0,0,10.732l3.954-1.17a1.17,1.17,0,0,1,1.029.181l3.31,2.451L9.738,4.006A14.6,14.6,0,0,1,1.895,0Z" transform="translate(76.12 125.249)"/>
      <path id="Path_30" data-name="Path 30" class="cls-6" d="M.351,3.228h0l1.234,6.966,1.854.55L2.106,3.211h0C1.562.117,1.661.678,1.521,0A19.6,19.6,0,0,1,0,1.281Z" transform="translate(96.538 125.202)"/>
      <path id="Path_31" data-name="Path 31" class="cls-6" d="M.222,0,0,1.275a13.5,13.5,0,0,0,6.317,2.7L5.071,11.031l1.55,1.17L8.065,4.012A14.639,14.639,0,0,1,.222,0Z" transform="translate(77.793 125.249)"/>
      <path id="Path_32" data-name="Path 32" class="cls-9" d="M0,6.744H6.744L0,0Z" transform="translate(104.37 4.293)"/>
      <g class="cls-11" transform="matrix(1, 0, 0, 1, -59.02, -68.77)">
        <path id="Path_33-2" data-name="Path 33" class="cls-7" d="M97.451,122.851V12.206a1.556,1.556,0,0,0-.427-1.035L86.28.427A1.526,1.526,0,0,0,85.244,0H6.825A6.837,6.837,0,0,0,0,6.837V122.851a6.837,6.837,0,0,0,6.825,6.837H56.6l-1.357,7.691a1.462,1.462,0,0,0,1.854,1.655l5.065-1.509,4.24,3.147a1.462,1.462,0,0,0,2.339-.918l1.369-7.767,1.369,7.767a1.462,1.462,0,0,0,2.31.924l4.246-3.147L83.1,139.04a1.462,1.462,0,0,0,1.854-1.655L83.6,129.694h7.018a6.843,6.843,0,0,0,6.831-6.843ZM86.712,4.971l5.743,5.743H86.712ZM66.271,136.906l-2.924-2.17a1.462,1.462,0,0,0-1.287-.228l-3.509,1.041,1.72-9.744h0a14.282,14.282,0,0,0,7.3,3.638Zm3.837-10.147a11.5,11.5,0,1,0-.012,0Zm8.059,7.749a1.456,1.456,0,0,0-1.287.228l-2.924,2.176-1.316-7.451h0a14.622,14.622,0,0,0,7.293-3.65h0l1.725,9.756Zm4.913-7.749-.7-3.948a14.405,14.405,0,1,0-24.564,0l-.7,3.948H6.825a3.913,3.913,0,0,1-3.9-3.913V6.837a3.913,3.913,0,0,1,3.9-3.913H83.788v9.282a1.462,1.462,0,0,0,1.462,1.462h9.276V122.851a3.913,3.913,0,0,1-3.913,3.913Z" transform="translate(76.97 68.77)"/>
      </g>
      <path id="Path_34" data-name="Path 34" class="cls-7" d="M1.462,2.924H58.393a1.462,1.462,0,1,0,0-2.924H1.462a1.462,1.462,0,0,0,0,2.924Z" transform="translate(36.747 16.113)"/>
      <path id="Path_35" data-name="Path 35" class="cls-7" d="M74.483,0H1.462a1.462,1.462,0,1,0,0,2.924H74.483a1.462,1.462,0,1,0,0-2.924Z" transform="translate(31.378 32.226)"/>
      <path id="Path_36" data-name="Path 36" class="cls-7" d="M79.834,0H1.462a1.462,1.462,0,0,0,0,2.924H79.834a1.462,1.462,0,1,0,0-2.924Z" transform="translate(26.027 47.24)"/>
      <path id="Path_37" data-name="Path 37" class="cls-7" d="M79.834,0H1.462a1.462,1.462,0,1,0,0,2.924H79.834a1.462,1.462,0,1,0,0-2.924Z" transform="translate(26.027 62.253)"/>
      <path id="Path_38" data-name="Path 38" class="cls-7" d="M69.114,0H1.462a1.462,1.462,0,0,0,0,2.924H69.114a1.462,1.462,0,1,0,0-2.924Z" transform="translate(26.027 77.261)"/>
      <path id="Path_39" data-name="Path 39" class="cls-2" d="M6.434,2.924H4.094V.585a.585.585,0,0,0-1.17,0V2.924H.585a.585.585,0,0,0,0,1.17H2.924V6.434a.585.585,0,0,0,1.17,0V4.094H6.434a.585.585,0,0,0,0-1.17Z" transform="translate(3.509 44.304)"/>
      <path id="Path_40" data-name="Path 40" class="cls-2" d="M6.434,2.924H4.094V.585a.585.585,0,1,0-1.17,0V2.924H.585a.585.585,0,0,0,0,1.17H2.924V6.434a.585.585,0,1,0,1.17,0V4.094H6.434a.585.585,0,0,0,0-1.17Z" transform="translate(0 103.504)"/>
      <path id="Path_41" data-name="Path 41" class="cls-8" d="M6.434,2.924H4.094V.585a.585.585,0,1,0-1.17,0V2.924H.585a.585.585,0,0,0,0,1.17H2.924V6.434a.585.585,0,1,0,1.17,0V4.094H6.434a.585.585,0,0,0,0-1.17Z" transform="translate(7.305 5.697)"/>
      <path id="Path_42" data-name="Path 42" class="cls-8" d="M6.434,2.924H4.094V.585a.585.585,0,0,0-1.17,0V2.924H.585a.585.585,0,1,0,0,1.17H2.924V6.434a.585.585,0,0,0,1.17,0V4.094H6.434a.585.585,0,1,0,0-1.17Z" transform="translate(122.822 47.813)"/>
      <path id="Path_43" data-name="Path 43" class="cls-2" d="M3.509,7.018A3.509,3.509,0,1,1,7.018,3.509,3.509,3.509,0,0,1,3.509,7.018Zm0-5.849A2.339,2.339,0,1,0,5.849,3.509,2.339,2.339,0,0,0,3.509,1.17Z" transform="translate(126.331 83.694)"/>
      <path id="Path_44" data-name="Path 44" class="cls-2" d="M3.509,7.018A3.509,3.509,0,1,1,7.018,3.509,3.509,3.509,0,0,1,3.509,7.018Zm0-5.849A2.339,2.339,0,1,0,5.849,3.509,2.339,2.339,0,0,0,3.509,1.17Z" transform="translate(127.6 10.194)"/>
      <path id="Path_45" data-name="Path 45" class="cls-8" d="M6.434,2.924H4.919l1.07-1.07a.585.585,0,0,0-.825-.825L4.094,2.1V.585a.585.585,0,0,0-1.17,0V2.1l-1.07-1.07a.585.585,0,0,0-.825.825L2.1,2.924H.585a.585.585,0,0,0,0,1.17H2.1l-1.07,1.07a.585.585,0,0,0,.825.825l1.07-1.07V6.434a.585.585,0,1,0,1.17,0V4.919l1.07,1.07a.585.585,0,0,0,.825-.825l-1.07-1.07H6.434a.585.585,0,1,0,0-1.17Z" transform="translate(7.018 124.284)"/>
    </g>
  </g>
</svg>
